<mxfile host="app.diagrams.net" modified="2024-04-29T12:35:42.854Z" agent="Mozilla/5.0 (Windows NT 10.0; Win64; x64) AppleWebKit/537.36 (KHTML, like Gecko) Chrome/124.0.0.0 Safari/537.36" version="24.3.0" etag="fx4DnP1Ph2cRvM7qy6LP" type="github">
  <diagram name="Page-1" id="t279jNCqeyPlph7fmcjT">
    <mxGraphModel>
      <root>
        <mxCell id="0" />
        <mxCell id="1" parent="0" />
      </root>
    </mxGraphModel>
  </diagram>
</mxfile>
